<?xml version="1.0" standalone="no"?>
<!DOCTYPE svg PUBLIC "-//W3C//DTD SVG 20010904//EN"
 "http://www.w3.org/TR/2001/REC-SVG-20010904/DTD/svg10.dtd">
<svg version="1.0" xmlns="http://www.w3.org/2000/svg"
 width="512.000000pt" height="512.000000pt" viewBox="0 0 512.000000 512.000000"
 preserveAspectRatio="xMidYMid meet">

<!--
<g transform="translate(0.000000,512.000000) scale(0.100000,-0.100000)"
fill="#ffffff" stroke="none">
<path d="M0 2560 m922 1400 c107 -12 227 -49 332 -102 114 -57 159 -90 268 -196 l97 -95
61 27 c140 63 341 117 545 148 59 8 189 13 380 13 259 0 304 -3 419 -23 150
-27 289 -67 406 -116 l84 -36 90 88 c103 100 148 133 261 190 464 232 910 76
1046 -368 27 -89 32 -242 10 -330 -19 -74 -60 -166 -109 -236 -51 -75 -180
-200 -256 -249 -82 -52 -224 -119 -323 -150 l-83 -27 0 -62 c0 -157 -51 -358
-129 -514 l-40 -79 24 -11 c14 -6 82 -35 152 -63 70 -29 140 -60 155 -71 35
-24 62 -96 54 -142 -12 -64 -84 -126 -148 -126 -12 0 -111 36 -220 80 l-199
80 -95 -87 c-52 -49 -92 -94 -89 -100 2 -7 53 -77 112 -155 102 -136 107 -145
111 -198 4 -70 -21 -113 -81 -140 -53 -24 -71 -24 -124 -1 -34 16 -63 48 -158
175 l-117 155 -75 -41 c-41 -22 -122 -60 -181 -84 -91 -37 -111 -50 -141 -88
-137 -172 -381 -236 -595 -156 -71 27 -165 96 -208 153 -28 39 -45 50 -118 77
-47 18 -129 55 -183 83 -58 30 -101 47 -106 41 -4 -5 -56 -74 -116 -152 -86
-116 -115 -148 -148 -163 -53 -23 -72 -23 -124 1 -60 27 -85 70 -81 141 4 53
8 61 117 204 l112 149 -98 94 c-54 52 -103 94 -108 94 -6 -1 -93 -36 -195 -78
-102 -42 -199 -78 -217 -81 -21 -4 -47 2 -78 17 -91 44 -113 162 -44 236 11
12 96 52 187 90 92 37 168 68 170 69 1 1 -18 44 -42 96 -74 156 -116 337 -116
501 l0 57 -82 26 c-100 32 -242 98 -324 150 -76 49 -205 174 -256 249 -190
277 -161 624 72 856 103 103 212 158 355 179 84 12 89 12 187 1z"/>
</g> -->

<g transform="translate(0.000000,512.000000) scale(0.100000,-0.100000)"
fill="#000000" stroke="none">
<path d="M745 3890 c-189 -26 -342 -139 -427 -315 -88 -184 -88 -350 1 -530
76 -152 204 -275 383 -367 86 -44 288 -118 323 -118 12 0 15 -16 15 -92 0
-216 55 -421 159 -597 18 -29 30 -55 28 -57 -2 -3 -91 -40 -198 -84 -109 -45
-202 -89 -211 -101 -36 -43 -11 -110 45 -124 16 -4 96 23 246 84 l224 91 59
-65 c32 -35 95 -94 138 -130 l80 -66 -130 -172 c-100 -132 -130 -179 -130
-202 0 -60 50 -96 104 -75 15 5 76 77 156 184 l132 175 37 -23 c63 -40 212
-112 304 -146 68 -26 92 -40 107 -64 44 -71 128 -135 220 -166 181 -62 389 -1
505 149 37 49 51 59 110 80 76 27 242 106 305 146 35 22 45 25 55 13 7 -7 67
-86 134 -176 74 -99 132 -167 147 -172 54 -21 104 16 104 75 0 23 -30 70 -132
204 l-131 174 49 41 c27 22 87 78 134 124 59 57 90 82 103 78 10 -2 110 -42
223 -87 196 -80 206 -83 232 -69 14 9 33 27 41 42 14 24 14 30 -1 61 -15 31
-30 39 -209 112 -107 43 -196 80 -198 81 -2 2 17 38 41 81 103 179 146 329
155 535 l6 136 34 7 c128 24 361 133 471 221 186 148 294 367 278 561 -13 140
-70 273 -161 371 -113 123 -238 174 -420 174 -264 -1 -523 -130 -711 -355
l-40 -48 -94 45 c-115 54 -266 100 -420 128 -147 26 -521 36 -697 19 -240 -24
-477 -85 -649 -167 l-77 -36 -51 58 c-27 33 -73 81 -101 107 -182 174 -476
277 -700 247z m263 -161 c146 -39 306 -138 400 -247 27 -31 52 -63 56 -70 5
-8 -21 -39 -75 -90 -45 -42 -104 -106 -131 -142 -72 -94 -144 -248 -175 -374
-18 -73 -31 -106 -41 -106 -32 0 -203 64 -284 107 -319 169 -443 447 -314 708
102 206 305 284 564 214z m3352 20 c142 -22 251 -103 316 -234 154 -311 -51
-637 -495 -785 -108 -36 -121 -37 -121 -7 0 44 -51 211 -89 293 -56 119 -131
222 -227 314 -46 43 -84 82 -84 86 0 3 23 33 51 65 118 136 313 243 494 269
73 11 84 11 155 -1z m-1375 -223 c320 -59 535 -163 701 -339 181 -192 263
-436 251 -747 -7 -172 -32 -273 -102 -415 -138 -281 -409 -531 -743 -687 -45
-21 -84 -38 -86 -38 -2 0 -6 31 -9 68 -19 231 -192 382 -437 382 -245 0 -420
-150 -437 -375 -3 -41 -10 -75 -14 -75 -18 0 -188 83 -259 127 -267 165 -452
358 -565 588 -68 137 -94 242 -101 405 -7 148 10 281 54 418 126 392 475 626
1042 698 148 18 583 12 705 -10z m-273 -1949 c139 -72 188 -241 110 -380 -75
-133 -252 -190 -394 -125 -101 47 -156 128 -166 244 -9 119 45 215 152 265 53
25 73 29 148 29 78 0 92 -3 150 -33z"/>

<path d="M1800 2495 c0 -501 0 -500 -60 -525 -17 -7 -53 -11 -85 -8 l-55 5 0
-78 0 -77 63 -7 c81 -9 178 14 227 54 45 37 77 100 90 181 5 37 10 249 10 488
l0 422 -95 0 -95 0 0 -455z"/>
<path d="M3152 2736 c-129 -42 -192 -175 -179 -381 8 -140 54 -233 137 -275
90 -46 191 -33 266 33 l47 41 -5 -80 c-11 -149 -46 -179 -197 -172 -57 3 -119
13 -153 25 l-58 20 0 -73 0 -72 32 -11 c18 -6 73 -16 124 -23 215 -26 370 41
416 181 7 24 13 164 15 414 l5 377 -81 0 -81 0 -1 -27 c0 -16 -4 -36 -8 -46
-6 -16 -9 -16 -31 8 -57 61 -166 88 -248 61z m207 -151 c39 -20 62 -73 68
-159 12 -151 -31 -226 -128 -226 -105 0 -144 55 -144 200 0 98 22 162 64 185
34 19 105 19 140 0z"/>
<path d="M2200 2480 c0 -213 3 -267 15 -298 35 -83 105 -125 210 -126 86 -1
136 16 187 62 21 19 40 33 41 31 2 -2 9 -23 16 -46 l12 -43 69 0 70 0 0 340 0
340 -89 0 -89 0 -4 -207 c-4 -181 -7 -214 -25 -253 -11 -25 -28 -51 -37 -59
-23 -19 -117 -26 -144 -12 -49 26 -56 60 -60 304 l-4 227 -84 0 -84 0 0 -260z"/>
</g>
</svg>
